<?xml version="1.0" encoding="UTF-8"?>
<!DOCTYPE svg PUBLIC "-//W3C//DTD SVG 1.1//EN" "http://www.w3.org/Graphics/SVG/1.1/DTD/svg11.dtd">
<!-- Creator: CorelDRAW 2019 (64-Bit) -->
<svg xmlns="http://www.w3.org/2000/svg" xml:space="preserve" width="25px" height="27px" version="1.1" style="shape-rendering:geometricPrecision; text-rendering:geometricPrecision; image-rendering:optimizeQuality; fill-rule:evenodd; clip-rule:evenodd"
viewBox="0 0 0.702 0.763"
 xmlns:xlink="http://www.w3.org/1999/xlink"
 xmlns:xodm="http://www.corel.com/coreldraw/odm/2003">
 <defs>
  <style type="text/css">
   <![CDATA[
    .fil0 {fill:white;fill-rule:nonzero}
   ]]>
  </style>
 </defs>
 <g id="Capa_x0020_1">
  <metadata id="CorelCorpID_0Corel-Layer"/>
  <polygon class="fil0" points="0.011,0.011 0.691,0.011 0.691,0.412 0.702,0.412 0.702,0.011 0.702,0 0.691,0 0.011,0 0,0 0,0.011 0,0.412 0.011,0.412 "/>
  <path class="fil0" d="M0.58 0.123l0 0.211 -0.012 0 0 -0.011 -0.011 0 -0.011 0 0 -0.022 0 -0.011 0 -0.011 0.011 -0.012 0 -0.022 -0.011 0 -0.022 0 -0.011 0 0 0.011 -0.011 0 0 -0.011 -0.012 0 -0.011 0 -0.011 0 0 0.011 -0.011 0 0 -0.011 -0.011 0 -0.023 0 -0.011 0 0 0.022 0.011 0.012 0 0.011 0 0.011 0 0.033 -0.011 0 0 -0.011 -0.011 0 0 -0.1 0.011 -0.011 0 -0.011 0 -0.012 -0.011 0 -0.011 0 -0.011 0 0 0.012 -0.011 0 0 -0.012 -0.023 0 -0.011 0 0 0 0 0.012 -0.011 0 0 -0.012 -0.022 0 -0.011 0 0 0.023 0.011 0.011 0 0.011 0 0.011 0 0.078 -0.011 0 0 0.011 -0.011 0 0 -0.033 0 -0.011 0 -0.011 0.011 -0.012 0 -0.022 -0.011 0 -0.023 0 -0.011 0 0 0.011 -0.011 0 0 -0.011 -0.011 0 -0.011 0 -0.011 0 0 0.011 -0.012 0 0 -0.011 -0.011 0 -0.022 0 -0.011 0 0 0.022 0.011 0.012 0 0.011 0 0.011 0 0.022 -0.011 0 -0.011 0 0 0.011 -0.011 0 0 -0.211 0.457 0zm0 0.234l-0.034 0 0 -0.023 0.011 0 0 0.011 0.011 0 0.012 0 0 0.012zm-0.01 0.122l-0.024 0 0 -0.011 0 -0.1 0.034 0 0 0.044c0,0.024 -0.004,0.046 -0.01,0.067zm-0.219 0.162c-0.099,0 -0.183,-0.063 -0.215,-0.151l0.02 0 0 0.012 0.011 0 0.1 0 0.012 0 0 -0.012 0.144 0 0 0.012 0.012 0 0.1 0 0.011 0 0 -0.012 0.02 0c-0.032,0.088 -0.116,0.151 -0.215,0.151zm-0.228 -0.229l0 -0.044 0.033 0 0 0.1 0 0.011 -0.023 0c-0.007,-0.021 -0.01,-0.043 -0.01,-0.067zm0.044 0.067l0.1 0 0 0.011 -0.1 0 0 -0.011zm0.368 0.011l-0.1 0 0 -0.011 0.1 0 0 0.011zm-0.112 -0.227l0 -0.007 0.023 0 0 0.011 0.011 0 0.011 0 0.011 0 0 -0.011 0.011 0 0 0.011 0.012 0 0.011 0 0.011 0 0 -0.011 0.022 0 0 0.007 -0.011 0.011 0 0 0 0.016 -0.1 0 0 -0.016 -0.012 -0.011zm0.012 0.071l0 -0.033 0.1 0 0 0.022 0 0.011 0 0.134 -0.1 0 0 -0.123 0 -0.011zm-0.134 -0.127l0 -0.006 0.011 0 0 0.011 0.022 0 0.011 0 0 0 0 -0.011 0.012 0 0 0.011 0.022 0 0.011 0 0 -0.011 0.011 0 0 0.006 -0.011 0.011 0 0 0 0.016 -0.078 0 0 -0.016 -0.011 -0.011zm0.011 0.038l0.078 0 0 0.078 -0.011 0 0 0.011 -0.011 0 0 -0.011 -0.011 0 -0.012 0 -0.011 0 0 0.011 -0.011 0 0 -0.011 -0.011 0 0 -0.078zm-0.011 0.089l0.011 0 0 0.011 0.011 0 0.011 0 0.011 0 0 -0.011 0.012 0 0 0.011 0.011 0 0.011 0 0.011 0 0 -0.011 0.011 0 0 0.011 0.011 0 0.011 0 0 0.123 0 0.011 -0.144 0 0 -0.011 0 -0.123 0.011 0 0.011 0 0 -0.011zm-0.145 -0.071l0 -0.007 0.022 0 0 0.011 0.011 0 0.012 0 0.011 0 0 -0.011 0.011 0 0 0.011 0.011 0 0.011 0 0.011 0 0 -0.011 0.023 0 0 0.007 -0.012 0.011 0 0 0 0.016 -0.1 0 0 -0.016 -0.011 -0.011zm0.011 0.06l0 -0.022 0.1 0 0 0.033 0 0.011 0 0.123 -0.1 0 0 -0.123 0 -0.011 0 -0.011zm-0.022 0.011l0.011 0 0 0.011 0 0.012 -0.033 0 0 -0.012 0.011 0 0.011 0 0 -0.011zm-0.034 -0.223l0 0.012 0 0.211 0 0.011 0 0.067c0,0.133 0.108,0.24 0.24,0.24 0.132,0 0.24,-0.107 0.24,-0.24l0 -0.067 0 -0.011 0 -0.211 0 -0.012 -0.011 0 -0.457 0 -0.012 0z"/>
  <path class="fil0" d="M0.223 0.357l-0.011 0 0 -0.017c0,-0.003 0.002,-0.006 0.005,-0.006 0.003,0 0.006,0.003 0.006,0.006l0 0.017zm0.011 -0.017c0,-0.009 -0.007,-0.017 -0.017,-0.017 -0.009,0 -0.016,0.008 -0.016,0.017l0 0.028 0.033 0 0 -0.028z"/>
  <path class="fil0" d="M0.49 0.357l-0.011 0 0 -0.017c0,-0.003 0.003,-0.006 0.006,-0.006 0.003,0 0.005,0.003 0.005,0.006l0 0.017zm0.012 -0.017c0,-0.009 -0.008,-0.017 -0.017,-0.017 -0.009,0 -0.017,0.008 -0.017,0.017l0 0.028 0.034 0 0 -0.028z"/>
  <path class="fil0" d="M0.357 0.29l-0.012 0 0 -0.017c0,-0.003 0.003,-0.006 0.006,-0.006 0.003,0 0.006,0.003 0.006,0.006l0 0.017zm0.011 -0.017c0,-0.009 -0.008,-0.017 -0.017,-0.017 -0.009,0 -0.017,0.008 -0.017,0.017l0 0.028 0.034 0 0 -0.028z"/>
  <path class="fil0" d="M0.334 0.44l0 -0.022c0,-0.009 0.008,-0.017 0.017,-0.017 0.009,0 0.017,0.008 0.017,0.017l0 0.022 0 0.039 0.011 0 0 -0.061c0,-0.015 -0.013,-0.028 -0.028,-0.028 -0.015,0 -0.028,0.013 -0.028,0.028l0 0.061 0.011 0 0 -0.039z"/>
  <polygon class="fil0" points="0.075,0.14 0.075,0.14 0.075,0.14 "/>
  <polygon class="fil0" points="0.048,0.14 0.061,0.167 0.075,0.14 0.067,0.142 0.067,0.072 0.072,0.067 0.072,0.045 0.061,0.055 0.05,0.045 0.05,0.067 0.056,0.072 0.056,0.142 "/>
  <polygon class="fil0" points="0.048,0.14 0.048,0.14 0.048,0.14 "/>
  <polygon class="fil0" points="0.654,0.14 0.654,0.14 0.654,0.14 "/>
  <polygon class="fil0" points="0.627,0.14 0.641,0.167 0.654,0.14 0.646,0.142 0.646,0.072 0.652,0.067 0.652,0.045 0.641,0.055 0.63,0.045 0.63,0.067 0.635,0.072 0.635,0.142 "/>
  <polygon class="fil0" points="0.627,0.14 0.627,0.14 0.627,0.14 "/>
  <polygon class="fil0" points="0.075,0.475 0.075,0.475 0.075,0.475 "/>
  <polygon class="fil0" points="0.048,0.475 0.061,0.502 0.075,0.475 0.067,0.476 0.067,0.406 0.072,0.401 0.072,0.379 0.061,0.389 0.05,0.379 0.05,0.401 0.056,0.406 0.056,0.476 "/>
  <polygon class="fil0" points="0.048,0.475 0.048,0.475 0.048,0.475 "/>
  <polygon class="fil0" points="0.654,0.475 0.654,0.475 0.654,0.475 "/>
  <polygon class="fil0" points="0.627,0.475 0.641,0.502 0.654,0.475 0.646,0.476 0.646,0.406 0.652,0.401 0.652,0.379 0.641,0.389 0.63,0.379 0.63,0.401 0.635,0.406 0.635,0.476 "/>
  <polygon class="fil0" points="0.627,0.475 0.627,0.475 0.627,0.475 "/>
  <path class="fil0" d="M0.351 0.752c-0.188,0 -0.34,-0.152 -0.34,-0.34l-0.011 0c0,0.194 0.157,0.351 0.351,0.351 0.194,0 0.351,-0.157 0.351,-0.351l-0.011 0c0,0.188 -0.152,0.34 -0.34,0.34z"/>
  <path class="fil0" d="M0.046 0.295c-0.001,0 -0.001,0.001 -0.002,0.001 -0.001,0 -0.001,0.001 -0.002,0.001l-0.003 0 0 0.004 0.03 0 0 -0.004 -0.005 0c-0.001,0 -0.002,-0.001 -0.002,-0.001 -0.001,0 -0.001,-0.001 -0.002,-0.001 0,-0.001 0,-0.002 0,-0.003l0 -0.016 0.018 0 0 -0.005 -0.018 0 0 -0.021 0.012 0c0.002,0 0.003,0.001 0.004,0.001 0.001,0.001 0.001,0.003 0.001,0.005l0.001 0.004 0.006 0 0 -0.015 -0.045 0 0 0.005 0.003 0c0.001,0 0.002,0 0.002,0 0.001,0 0.001,0.001 0.002,0.001 0,0.001 0,0.002 0,0.003l0 0.038c0,0.001 0,0.002 0,0.003z"/>
  <path class="fil0" d="M0.625 0.295c0,0 -0.001,0.001 -0.001,0.001 -0.001,0 -0.002,0.001 -0.003,0.001l-0.003 0 0 0.004 0.03 0 0 -0.004 -0.004 0c-0.001,0 -0.002,-0.001 -0.003,-0.001 0,0 -0.001,-0.001 -0.001,-0.001 0,-0.001 0,-0.002 0,-0.003l0 -0.016 0.018 0 0 -0.005 -0.018 0 0 -0.021 0.012 0c0.001,0 0.002,0.001 0.003,0.001 0.001,0.001 0.002,0.003 0.002,0.005l0 0.004 0.006 0 0 -0.015 -0.045 0 0 0.005 0.004 0c0.001,0 0.001,0 0.002,0 0,0 0.001,0.001 0.001,0.001 0,0.001 0,0.002 0,0.003l0 0.038c0,0.001 0,0.002 0,0.003z"/>
  <path class="fil0" d="M0.335 0.083c0,0.001 -0.001,0.001 -0.001,0.001 -0.001,0.001 -0.002,0.001 -0.002,0.001l-0.004 0 0 0.004 0.031 0 0 -0.004 -0.005 0c-0.001,0 -0.002,0 -0.002,-0.001 -0.001,0 -0.001,-0.001 -0.002,-0.001 0,-0.001 0,-0.002 0,-0.003l0 -0.016 0.018 0 0 -0.005 -0.018 0 0 -0.02 0.012 0c0.001,0 0.002,0 0.003,0.001 0.001,0 0.002,0.002 0.002,0.004l0.001 0.004 0.006 0 -0.001 -0.015 -0.045 0 0 0.005 0.004 0c0.001,0 0.001,0 0.002,0 0.001,0.001 0.001,0.001 0.001,0.002 0.001,0 0.001,0.001 0.001,0.002l0 0.038c0,0.002 0,0.002 -0.001,0.003z"/>
  <path class="fil0" d="M0.362 0.679c0.001,0 0.002,0.001 0.003,0.002 0.001,0 0.002,0.002 0.002,0.004l0.001 0.004 0.006 0 -0.001 -0.015 -0.045 0 0 0.005 0.004 0c0.001,0 0.001,0 0.002,0 0.001,0 0.001,0.001 0.001,0.001 0.001,0.001 0.001,0.002 0.001,0.003l0 0.038c0,0.001 0,0.002 -0.001,0.003 0,0 -0.001,0.001 -0.001,0.001 -0.001,0 -0.002,0.001 -0.002,0.001l-0.004 0 0 0.004 0.031 0 0 -0.004 -0.005 0c-0.001,0 -0.002,-0.001 -0.002,-0.001 -0.001,0 -0.001,-0.001 -0.002,-0.001 0,-0.001 0,-0.002 0,-0.003l0 -0.016 0.018 0 0 -0.005 -0.018 0 0 -0.021 0.012 0z"/>
  <path class="fil0" d="M0.159 0.227c0,0.001 0.001,0.001 0.002,0.002 0.001,0.001 0.002,0.002 0.004,0.003 0.002,0.001 0.005,0.002 0.007,0.002 0.001,0 0.002,0 0.003,-0.001 0.002,0 0.004,0 0.005,-0.001 0.001,0 0.002,-0.001 0.003,-0.002 0.001,0 0.001,-0.001 0.002,-0.001 0.001,-0.001 0.002,-0.002 0.003,-0.004 0,-0.001 0.001,-0.003 0.001,-0.004 0,-0.001 0.001,-0.002 0,-0.003l0 0 0 0c0,-0.001 0,-0.001 0,-0.002 0,-0.001 0,-0.002 0,-0.003 -0.001,-0.003 -0.003,-0.006 -0.005,-0.008 0,0 -0.003,-0.003 -0.003,-0.003 -0.001,-0.001 -0.003,-0.003 -0.005,-0.005 -0.001,-0.001 -0.002,-0.003 -0.003,-0.005 -0.001,0.001 -0.001,0.002 -0.002,0.003 -0.001,0.001 -0.001,0.003 -0.001,0.005 0,0.002 0.001,0.004 0.002,0.006l0 0c0,0.001 0.001,0.002 0.001,0.003 0.001,0.003 -0.001,0.006 -0.003,0.008 -0.001,0.001 -0.002,0.001 -0.004,0.001 -0.001,0 -0.003,-0.001 -0.004,-0.002 -0.002,-0.001 -0.002,-0.003 -0.002,-0.004 -0.001,-0.001 -0.001,-0.002 -0.001,-0.003 -0.001,0.002 -0.002,0.003 -0.002,0.005 -0.001,0.002 -0.001,0.004 -0.001,0.006 0,0.003 0.001,0.005 0.003,0.007z"/>
  <path class="fil0" d="M0.203 0.227c0.001,0.001 0.002,0.001 0.002,0.002 0.002,0.001 0.003,0.002 0.005,0.003 0.002,0.001 0.004,0.002 0.007,0.002 0.001,0 0.001,0 0.002,-0.001 0.002,0 0.004,0 0.006,-0.001 0,0 0.001,-0.001 0.002,-0.002 0.001,0 0.002,-0.001 0.002,-0.001 0.001,-0.001 0.002,-0.002 0.003,-0.004 0.001,-0.001 0.001,-0.003 0.002,-0.004 0,-0.001 0,-0.002 0,-0.003l0 0 0 0c0,-0.001 0,-0.001 0,-0.002 0,-0.001 -0.001,-0.002 -0.001,-0.003 -0.001,-0.003 -0.002,-0.006 -0.004,-0.008 -0.001,0 -0.003,-0.003 -0.003,-0.003 -0.002,-0.001 -0.004,-0.003 -0.005,-0.005 -0.002,-0.001 -0.003,-0.003 -0.003,-0.005 -0.001,0.001 -0.002,0.002 -0.002,0.003 -0.001,0.001 -0.001,0.003 -0.001,0.005 0,0.002 0.001,0.004 0.001,0.006l0.001 0c0,0.001 0,0.002 0.001,0.003 0,0.003 -0.001,0.006 -0.004,0.008 -0.001,0.001 -0.002,0.001 -0.003,0.001 -0.002,0 -0.004,-0.001 -0.005,-0.002 -0.001,-0.001 -0.001,-0.003 -0.002,-0.004 0,-0.001 0,-0.002 0,-0.003 -0.001,0.002 -0.002,0.003 -0.003,0.005 0,0.002 0,0.004 0,0.006 0,0.003 0.001,0.005 0.002,0.007z"/>
  <path class="fil0" d="M0.248 0.227c0,0.001 0.001,0.001 0.002,0.002 0.001,0.001 0.003,0.002 0.004,0.003 0.003,0.001 0.005,0.002 0.007,0.002 0.001,0 0.002,0 0.003,-0.001 0.002,0 0.004,0 0.005,-0.001 0.001,0 0.002,-0.001 0.003,-0.002 0.001,0 0.001,-0.001 0.002,-0.001 0.001,-0.001 0.002,-0.002 0.003,-0.004 0.001,-0.001 0.001,-0.003 0.001,-0.004 0,-0.001 0.001,-0.002 0.001,-0.003l0 0 0 0c0,-0.001 0,-0.001 -0.001,-0.002 0,-0.001 0,-0.002 0,-0.003 -0.001,-0.003 -0.003,-0.006 -0.005,-0.008 0,0 -0.003,-0.003 -0.003,-0.003 -0.001,-0.001 -0.003,-0.003 -0.005,-0.005 -0.001,-0.001 -0.002,-0.003 -0.003,-0.005 -0.001,0.001 -0.001,0.002 -0.002,0.003 0,0.001 -0.001,0.003 -0.001,0.005 0.001,0.002 0.001,0.004 0.002,0.006l0 0c0.001,0.001 0.001,0.002 0.001,0.003 0.001,0.003 0,0.006 -0.003,0.008 -0.001,0.001 -0.002,0.001 -0.004,0.001 -0.001,0 -0.003,-0.001 -0.004,-0.002 -0.001,-0.001 -0.002,-0.003 -0.002,-0.004 0,-0.001 -0.001,-0.002 -0.001,-0.003 -0.001,0.002 -0.001,0.003 -0.002,0.005 -0.001,0.002 -0.001,0.004 -0.001,0.006 0,0.003 0.001,0.005 0.003,0.007z"/>
  <path class="fil0" d="M0.425 0.225c0.001,0.002 0.002,0.003 0.003,0.004 0.001,0 0.001,0.001 0.002,0.001 0.001,0.001 0.002,0.002 0.003,0.002 0.001,0.001 0.003,0.001 0.005,0.001 0.001,0.001 0.002,0.001 0.003,0.001 0.002,0 0.004,-0.001 0.007,-0.002 0.001,-0.001 0.003,-0.002 0.004,-0.003 0.001,-0.001 0.002,-0.001 0.002,-0.002 0.002,-0.002 0.003,-0.004 0.003,-0.007 0,-0.002 0,-0.004 -0.001,-0.006 0,-0.002 -0.001,-0.003 -0.002,-0.005 0,0.001 0,0.002 -0.001,0.003 0,0.001 0,0.003 -0.002,0.004 -0.001,0.001 -0.003,0.002 -0.004,0.002 -0.002,0 -0.003,0 -0.004,-0.001 -0.003,-0.002 -0.004,-0.005 -0.003,-0.008 0,-0.001 0,-0.002 0.001,-0.003l0 0c0.001,-0.002 0.001,-0.004 0.002,-0.006 0,-0.002 -0.001,-0.004 -0.001,-0.005 -0.001,-0.001 -0.001,-0.002 -0.002,-0.003 -0.001,0.002 -0.002,0.004 -0.003,0.005 -0.002,0.002 -0.004,0.004 -0.005,0.005 0,0 -0.003,0.003 -0.003,0.003 -0.002,0.002 -0.004,0.005 -0.005,0.008 0,0.001 0,0.002 0,0.003 0,0.001 -0.001,0.001 0,0.002l0 0 0 0c-0.001,0.001 0,0.002 0,0.003 0,0.001 0.001,0.003 0.001,0.004z"/>
  <path class="fil0" d="M0.515 0.225c0.001,0.002 0.001,0.003 0.002,0.004 0.001,0 0.002,0.001 0.002,0.001 0.001,0.001 0.002,0.002 0.003,0.002 0.002,0.001 0.003,0.001 0.005,0.001 0.001,0.001 0.002,0.001 0.003,0.001 0.002,0 0.005,-0.001 0.007,-0.002 0.002,-0.001 0.003,-0.002 0.004,-0.003 0.001,-0.001 0.002,-0.001 0.002,-0.002 0.002,-0.002 0.003,-0.004 0.003,-0.007 0,-0.002 0,-0.004 -0.001,-0.006 0,-0.002 -0.001,-0.003 -0.002,-0.005 0,0.001 0,0.002 -0.001,0.003 0,0.001 0,0.003 -0.001,0.004 -0.002,0.001 -0.003,0.002 -0.005,0.002 -0.001,0 -0.003,0 -0.004,-0.001 -0.002,-0.002 -0.004,-0.005 -0.003,-0.008 0,-0.001 0.001,-0.002 0.001,-0.003l0 0c0.001,-0.002 0.002,-0.004 0.002,-0.006 0,-0.002 0,-0.004 -0.001,-0.005 0,-0.001 -0.001,-0.002 -0.002,-0.003 -0.001,0.002 -0.002,0.004 -0.003,0.005 -0.002,0.002 -0.003,0.004 -0.005,0.005 0,0 -0.003,0.003 -0.003,0.003 -0.002,0.002 -0.004,0.005 -0.004,0.008 -0.001,0.001 -0.001,0.002 -0.001,0.003 0,0.001 0,0.001 0,0.002l0 0 0 0c0,0.001 0,0.002 0,0.003 0,0.001 0.001,0.003 0.002,0.004z"/>
  <path class="fil0" d="M0.47 0.225c0.001,0.002 0.002,0.003 0.003,0.004 0,0 0.001,0.001 0.002,0.001 0.001,0.001 0.002,0.002 0.003,0.002 0.001,0.001 0.003,0.001 0.005,0.001 0.001,0.001 0.001,0.001 0.002,0.001 0.003,0 0.005,-0.001 0.007,-0.002 0.002,-0.001 0.003,-0.002 0.005,-0.003 0.001,-0.001 0.001,-0.001 0.002,-0.002 0.001,-0.002 0.002,-0.004 0.002,-0.007 0.001,-0.002 0,-0.004 0,-0.006 -0.001,-0.002 -0.002,-0.003 -0.003,-0.005 0,0.001 0,0.002 0,0.003 0,0.001 -0.001,0.003 -0.002,0.004 -0.001,0.001 -0.003,0.002 -0.005,0.002 -0.001,0 -0.002,0 -0.003,-0.001 -0.003,-0.002 -0.004,-0.005 -0.004,-0.008 0.001,-0.001 0.001,-0.002 0.001,-0.003l0.001 0c0.001,-0.002 0.001,-0.004 0.001,-0.006 0,-0.002 0,-0.004 -0.001,-0.005 0,-0.001 -0.001,-0.002 -0.002,-0.003 0,0.002 -0.001,0.004 -0.003,0.005 -0.001,0.002 -0.003,0.004 -0.005,0.005 0,0 -0.002,0.003 -0.003,0.003 -0.002,0.002 -0.003,0.005 -0.004,0.008 0,0.001 -0.001,0.002 -0.001,0.003 0,0.001 0,0.001 0,0.002l0 0 0 0c0,0.001 0,0.002 0,0.003 0.001,0.001 0.001,0.003 0.002,0.004z"/>
  <path class="fil0" d="M0.337 0.17c0.001,0.001 0.001,0.002 0.002,0.002 0.001,0.002 0.003,0.003 0.005,0.003 0.002,0.001 0.004,0.002 0.007,0.002 0,0 0.001,0 0.002,0 0.002,-0.001 0.004,-0.001 0.005,-0.002 0.001,0 0.002,-0.001 0.003,-0.002 0.001,0 0.002,-0.001 0.002,-0.001 0.001,-0.001 0.002,-0.002 0.003,-0.004 0.001,-0.001 0.001,-0.002 0.001,-0.004 0.001,-0.001 0.001,-0.002 0.001,-0.003l0 0 0 0c0,-0.001 0,-0.001 0,-0.002 -0.001,-0.001 -0.001,-0.002 -0.001,-0.003 -0.001,-0.003 -0.002,-0.006 -0.005,-0.008 0,0 -0.002,-0.002 -0.002,-0.002 -0.002,-0.002 -0.004,-0.004 -0.006,-0.006 -0.001,-0.001 -0.002,-0.003 -0.003,-0.005 0,0.001 -0.001,0.002 -0.001,0.003 -0.001,0.001 -0.001,0.003 -0.001,0.005 0,0.002 0,0.004 0.001,0.006l0 0.001c0.001,0 0.001,0.001 0.001,0.002 0.001,0.004 0,0.006 -0.003,0.008 -0.001,0.001 -0.002,0.001 -0.003,0.001 -0.002,0 -0.004,-0.001 -0.005,-0.002 -0.001,-0.001 -0.002,-0.003 -0.002,-0.004 0,-0.001 0,-0.002 0,-0.003 -0.001,0.002 -0.002,0.003 -0.003,0.005 -0.001,0.002 -0.001,0.004 -0.001,0.006 0.001,0.003 0.001,0.005 0.003,0.007z"/>
 </g>
</svg>
